<!DOCTYPE svg PUBLIC "-//W3C//DTD SVG 1.1//EN" "http://www.w3.org/Graphics/SVG/1.1/DTD/svg11.dtd">
<!-- Uploaded to: SVG Repo, www.svgrepo.com, Transformed by: SVG Repo Mixer Tools -->
<svg version="1.1" id="Layer_1" xmlns="http://www.w3.org/2000/svg" xmlns:xlink="http://www.w3.org/1999/xlink" viewBox="0 0 512 512" xml:space="preserve" width="800px" height="800px" fill="#000000">
<g id="SVGRepo_bgCarrier" stroke-width="0"/>
<g id="SVGRepo_tracerCarrier" stroke-linecap="round" stroke-linejoin="round"/>
<g id="SVGRepo_iconCarrier"> <circle style="fill:#FF92BC;" cx="256" cy="256" r="256"/> <path style="fill:#FF80AA;" d="M282.488,510.617c56.429-5.835,111.29-30.358,154.531-73.599 c40.82-40.82,64.964-91.996,72.451-145.07L310.12,92.6l-33.397,26.576l-29.882-29.884l-21.058,64.705l31.366,31.366v48.04 l-66.158-9.519l66.158,66.158l-100.705,22.847l86.525,86.525l-49.604,22.081L282.488,510.617z"/> <path style="fill:#90DFAA;" d="M256,243.576c0,0-11.493-68.956-85.333-56.889C170.667,186.687,180.722,249.609,256,243.576z"/> <path style="fill:#7CCE93;" d="M260.741,219.672c0,0,10.216-61.295,75.852-50.567C336.593,169.105,327.654,225.035,260.741,219.672z "/> <rect x="248.242" y="142.222" style="fill:#2C9984;" width="15.515" height="170.667"/> <rect x="255.431" y="142.222" style="fill:#258472;" width="8.332" height="170.667"/> <path style="fill:#FFEB75;" d="M195.663,110.933c0-16.662,13.507-30.168,30.168-30.168c16.662,0,30.168,13.507,30.168,30.168 c0-16.662,13.507-30.168,30.168-30.168c16.662,0,30.168,13.507,30.168,30.168c0,28.848-60.337,63.354-60.337,63.354 S195.663,141.407,195.663,110.933z"/> <path style="fill:#F9D857;" d="M286.168,80.765c-16.662,0-30.168,13.507-30.168,30.168c0-1.995-0.205-3.939-0.574-5.825v68.86 c0.359,0.2,0.574,0.319,0.574,0.319s60.337-34.506,60.337-63.354C316.337,94.272,302.83,80.765,286.168,80.765z"/> <polygon style="fill:#B97850;" points="318.635,421.495 193.365,421.495 162.047,293.926 349.953,293.926 "/> <g> <polygon style="fill:#935635;" points="349.953,293.926 255.426,293.926 255.426,421.495 318.635,421.495 "/> <rect x="156.444" y="256" style="fill:#935635;" width="199.111" height="56.889"/> </g> <rect x="255.431" y="256" style="fill:#804000;" width="100.124" height="56.889"/> </g>
</svg>